<svg width="21" height="21" viewBox="0 0 21 21" fill="none" xmlns="http://www.w3.org/2000/svg">
<path d="M10.5 6.125C9.5375 6.125 8.75 6.9125 8.75 7.875C8.75 8.8375 9.5375 9.625 10.5 9.625C10.9641 9.625 11.4092 9.44063 11.7374 9.11244C12.0656 8.78425 12.25 8.33913 12.25 7.875C12.25 7.41087 12.0656 6.96575 11.7374 6.63756C11.4092 6.30937 10.9641 6.125 10.5 6.125ZM4.375 17.5H16.625V19.25H4.375V17.5Z" fill="black"/>
<path d="M10.5 3.5C12.1888 3.5 14.875 4.725 14.875 8.00625C14.875 9.89625 13.37 12.0925 10.5 14.4112C7.63 12.0925 6.125 9.8875 6.125 8.00625C6.125 4.725 8.81125 3.5 10.5 3.5ZM10.5 1.75C7.63875 1.75 4.375 3.9025 4.375 8.00625C4.375 10.7362 6.41375 13.615 10.5 16.625C14.5863 13.615 16.625 10.7362 16.625 8.00625C16.625 3.9025 13.3613 1.75 10.5 1.75Z" fill="black"/>
</svg>
